<svg xmlns="http://www.w3.org/2000/svg" viewBox="0 0 100 100" width="100" height="100">
	<style>
		tspan { white-space:pre }
		.shp0 { fill: #000000 } 
	</style>
	<path id="Layer" fill-rule="evenodd" class="shp0" d="M50 99.6C22.6 99.6 0.4 77.4 0.4 50C0.4 22.6 22.6 0.4 50 0.4C77.4 0.4 99.6 22.6 99.6 50C99.57 77.38 77.38 99.57 50 99.6ZM45.04 74.8L45.04 84.72L54.96 84.72L54.96 74.8L45.04 74.8ZM50 25.2C55.48 25.2 59.92 29.64 59.92 35.12C59.94 37.75 58.88 40.28 56.99 42.11L50.84 48.36C47.13 52.09 45.04 57.14 45.04 62.4L45.04 64.88L54.96 64.88C54.57 59.55 56.73 54.35 60.76 50.84L65.23 46.28C68.19 43.33 69.86 39.31 69.84 35.12C69.84 24.16 60.96 15.28 50 15.28C39.04 15.28 30.16 24.16 30.16 35.12L40.08 35.12C40.08 29.64 44.52 25.2 50 25.2Z" />
</svg>