<svg xmlns="http://www.w3.org/2000/svg" viewBox="0 0 80 80" width="80" height="80">
	<defs>
		<radialGradient id="grd1" gradientUnits="userSpaceOnUse"  cx="28.401" cy="60.247" r="77.195">
			<stop offset="0" stop-color="#b13589"  />
			<stop offset="0.793" stop-color="#c62f94"  />
			<stop offset="1" stop-color="#8a3ac8"  />
		</radialGradient>
		<radialGradient id="grd2" gradientUnits="userSpaceOnUse"  cx="25.577" cy="82.782" r="66.262">
			<stop offset="0" stop-color="#e0e8b7"  />
			<stop offset="0.445" stop-color="#fb8a2e"  />
			<stop offset="0.715" stop-color="#e2425c"  />
			<stop offset="1" stop-color="#e2425c" stop-opacity="0" />
		</radialGradient>
		<radialGradient id="grd3" gradientUnits="userSpaceOnUse"  cx="-4.074" cy="3.909" r="109.471">
			<stop offset="0.157" stop-color="#406adc"  />
			<stop offset="0.468" stop-color="#6a45be"  />
			<stop offset="1" stop-color="#6a45be" stop-opacity="0" />
		</radialGradient>
	</defs>
	<style>
		tspan { white-space:pre }
		.shp0 { fill: url(#grd1) } 
		.shp1 { fill: url(#grd2) } 
		.shp2 { fill: url(#grd3) } 
		.shp3 { fill: #ffffff } 
	</style>
	<path id="Layer" class="shp0" d="M6.54 1.1L72.86 1.1C76.38 1.1 79.23 4.55 79.23 8.82L79.23 72.24C79.23 76.51 76.38 79.97 72.86 79.97L6.54 79.97C3.02 79.97 0.16 76.51 0.16 72.24L0.16 8.82C0.16 4.55 3.02 1.1 6.54 1.1Z" />
	<path id="Layer" class="shp1" d="M6.54 1.1L72.86 1.1C76.38 1.1 79.23 4.55 79.23 8.82L79.23 72.24C79.23 76.51 76.38 79.97 72.86 79.97L6.54 79.97C3.02 79.97 0.16 76.51 0.16 72.24L0.16 8.82C0.16 4.55 3.02 1.1 6.54 1.1Z" />
	<path id="Layer" class="shp2" d="M6.54 1.1L72.86 1.1C76.38 1.1 79.23 4.55 79.23 8.82L79.23 72.24C79.23 76.51 76.38 79.97 72.86 79.97L6.54 79.97C3.02 79.97 0.16 76.51 0.16 72.24L0.16 8.82C0.16 4.55 3.02 1.1 6.54 1.1Z" />
	<path id="Layer" class="shp3" d="M59.46 25.04C59.46 27.37 57.57 29.26 55.22 29.26C52.89 29.26 50.99 27.37 50.99 25.04C50.99 22.7 52.89 20.81 55.22 20.81C57.57 20.81 59.46 22.7 59.46 25.04Z" />
	<path id="Layer" fill-rule="evenodd" class="shp3" d="M25.58 40.53C25.58 32.75 31.9 26.45 39.69 26.45C47.5 26.45 53.82 32.75 53.82 40.53C53.82 48.31 47.5 54.62 39.69 54.62C31.9 54.62 25.58 48.31 25.58 40.53ZM39.69 48.98C44.38 48.98 48.17 45.2 48.17 40.53C48.17 35.86 44.38 32.08 39.69 32.08C35.02 32.08 31.22 35.86 31.22 40.53C31.22 45.2 35.02 48.98 39.69 48.98Z" />
	<path id="Layer" fill-rule="evenodd" class="shp3" d="M11.46 39.41C11.46 29.93 11.46 25.2 13.3 21.59C14.93 18.41 17.52 15.82 20.71 14.21C24.33 12.35 29.07 12.35 38.57 12.35L40.82 12.35C50.32 12.35 55.06 12.35 58.69 14.21C61.87 15.82 64.47 18.41 66.09 21.59C67.93 25.2 67.93 29.93 67.93 39.41L67.93 41.66C67.93 51.12 67.93 55.85 66.09 59.47C64.47 62.65 61.87 65.23 58.69 66.86C55.06 68.7 50.32 68.7 40.82 68.7L38.57 68.7C29.07 68.7 24.33 68.7 20.71 66.86C17.52 65.23 14.93 62.65 13.3 59.47C11.46 55.85 11.46 51.12 11.46 41.66L11.46 39.41ZM27.9 18.21C25.42 18.41 24.16 18.78 23.27 19.22C21.14 20.3 19.42 22.02 18.33 24.15C17.89 25.03 17.52 26.29 17.31 28.75C17.11 31.29 17.11 34.57 17.11 39.41L17.11 41.66C17.11 46.48 17.11 49.76 17.31 52.3C17.52 54.77 17.89 56.03 18.33 56.91C19.42 59.03 21.14 60.75 23.27 61.84C24.16 62.29 25.42 62.65 27.9 62.86C30.45 63.06 33.73 63.06 38.57 63.06L40.82 63.06C45.67 63.06 48.95 63.06 51.5 62.86C53.97 62.65 55.23 62.29 56.13 61.84C58.25 60.75 59.98 59.03 61.05 56.91C61.51 56.03 61.87 54.77 62.08 52.3C62.29 49.76 62.29 46.48 62.29 41.66L62.29 39.41C62.29 34.57 62.29 31.29 62.08 28.75C61.87 26.29 61.51 25.03 61.05 24.15C59.98 22.02 58.25 20.3 56.13 19.22C55.23 18.78 53.97 18.41 51.5 18.21C48.95 18 45.67 17.99 40.82 17.99L38.57 17.99C33.73 17.99 30.45 18 27.9 18.21Z" />
</svg>