<svg xmlns="http://www.w3.org/2000/svg" viewBox="0 0 190 150" width="190" height="150">
	<style>
		tspan { white-space:pre }
		.shp0 { fill: #ffffff;stroke: #d9d9d9;stroke-width: 1.634 } 
		.shp1 { fill: #ed0006 } 
		.shp2 { fill: #f9a000 } 
		.shp3 { fill: #ff5e00 } 
	</style>
	<g id="Layer">
		<path id="Layer" class="shp0" d="M16.26 1.52L173.67 1.52C182.24 1.52 189.17 9.44 189.17 19.25L189.17 131.09C189.17 140.9 182.24 148.82 173.67 148.82L16.26 148.82C7.69 148.82 0.76 140.9 0.76 131.09L0.76 19.25C0.76 9.44 7.69 1.52 16.26 1.52Z" />
	</g>
	<path id="Layer" fill-rule="evenodd" class="shp1" d="M95.96 108.59C89.51 114.98 81.13 118.83 71.97 118.83C51.55 118.83 34.99 99.63 34.99 75.96C34.99 52.28 51.55 33.09 71.97 33.09C81.13 33.09 89.51 36.95 95.96 43.33C102.42 36.95 110.8 33.09 119.96 33.09C140.38 33.09 156.94 52.28 156.94 75.96C156.94 99.63 140.38 118.83 119.96 118.83C110.8 118.83 102.42 114.98 95.96 108.59Z" />
	<path id="Layer" fill-rule="evenodd" class="shp2" d="M95.96 108.59C103.92 100.72 108.96 89.02 108.96 75.96C108.96 62.89 103.92 51.19 95.96 43.33C102.42 36.95 110.8 33.09 119.96 33.09C140.38 33.09 156.94 52.28 156.94 75.96C156.94 99.63 140.38 118.83 119.96 118.83C110.8 118.83 102.42 114.98 95.96 108.59Z" />
	<path id="Layer" fill-rule="evenodd" class="shp3" d="M95.96 108.59C103.92 100.72 108.96 89.02 108.96 75.96C108.96 62.89 103.92 51.19 95.96 43.33C88.01 51.19 82.97 62.89 82.97 75.96C82.97 89.02 88.01 100.72 95.96 108.59Z" />
</svg>