<svg xmlns="http://www.w3.org/2000/svg" viewBox="0 0 190 150" width="190" height="150">
	<style>
		tspan { white-space:pre }
		.shp0 { fill: #ffffff;stroke: #d9d9d9;stroke-width: 1.621 } 
		.shp1 { fill: #28356a } 
		.shp2 { fill: #298fc2 } 
		.shp3 { fill: #22284f } 
	</style>
	<g id="Layer">
		<path id="Layer" class="shp0" d="M16.98 1.7L172.73 1.7C181.21 1.7 188.06 9.59 188.06 19.35L188.06 130.65C188.06 140.41 181.21 148.3 172.73 148.3L16.98 148.3C8.5 148.3 1.64 140.41 1.64 130.65L1.64 19.35C1.64 9.59 8.5 1.7 16.98 1.7Z" />
	</g>
	<path id="Layer" fill-rule="evenodd" class="shp1" d="M81.66 114.85L82.88 105.9L80.17 105.83L67.19 105.83L76.21 39.73C76.24 39.53 76.33 39.34 76.46 39.22C76.6 39.08 76.77 39.01 76.94 39.01L98.83 39.01C106.09 39.01 111.1 40.75 113.72 44.2C114.95 45.82 115.73 47.51 116.11 49.37C116.5 51.32 116.51 53.66 116.13 56.5L116.1 56.71L116.1 58.53L117.33 59.33C118.35 59.97 119.18 60.7 119.81 61.52C120.86 62.91 121.54 64.67 121.82 66.75C122.12 68.89 122.02 71.44 121.54 74.33C120.98 77.66 120.07 80.55 118.85 82.92C117.72 85.1 116.29 86.91 114.59 88.31C112.96 89.64 111.04 90.65 108.86 91.3C106.74 91.93 104.33 92.25 101.69 92.25L99.98 92.25C98.77 92.25 97.59 92.76 96.66 93.67C95.73 94.6 95.11 95.86 94.92 97.25L94.79 98.06L92.64 113.84L92.54 114.42C92.51 114.61 92.47 114.7 92.41 114.76C92.35 114.82 92.26 114.85 92.19 114.85L81.66 114.85Z" />
	<path id="Layer" fill-rule="evenodd" class="shp2" d="M118.49 56.92C118.42 57.4 118.35 57.9 118.26 58.4C115.38 75.52 105.51 81.44 92.89 81.44L86.48 81.44C84.93 81.44 83.64 82.74 83.39 84.5L79.18 115.42C79.02 116.58 79.79 117.61 80.8 117.61L92.19 117.61C93.53 117.61 94.67 116.48 94.89 114.94L95 114.27L97.15 98.55L97.28 97.69C97.5 96.14 98.64 95.01 99.99 95.01L101.69 95.01C112.72 95.01 121.36 89.83 123.88 74.86C124.94 68.6 124.39 63.37 121.6 59.7C120.76 58.59 119.71 57.67 118.49 56.92Z" />
	<path id="Layer" fill-rule="evenodd" class="shp3" d="M115.47 55.53C115.03 55.38 114.57 55.24 114.11 55.13C113.63 55 113.16 54.9 112.66 54.81C110.93 54.48 109.03 54.33 107 54.33L89.85 54.33C89.43 54.33 89.02 54.44 88.67 54.64C87.88 55.08 87.29 55.94 87.14 57.01L83.49 83.71L83.39 84.5C83.64 82.74 84.93 81.44 86.47 81.44L92.89 81.44C105.5 81.44 115.38 75.52 118.26 58.4C118.35 57.9 118.42 57.4 118.49 56.92C117.76 56.47 116.96 56.09 116.11 55.77C115.9 55.68 115.69 55.6 115.47 55.53Z" />
	<path id="Layer" fill-rule="evenodd" class="shp1" d="M87.14 57.01C87.29 55.94 87.88 55.08 88.67 54.65C89.03 54.44 89.43 54.33 89.85 54.33L107 54.33C109.03 54.33 110.93 54.49 112.66 54.81C113.16 54.9 113.64 55 114.11 55.13C114.57 55.25 115.03 55.39 115.47 55.53C115.69 55.61 115.9 55.69 116.11 55.77C116.96 56.09 117.76 56.48 118.49 56.92C119.35 50.59 118.48 46.28 115.52 42.38C112.26 38.08 106.36 36.24 98.83 36.24L76.95 36.24C75.4 36.24 74.09 37.54 73.86 39.3L64.74 106.08C64.56 107.4 65.44 108.59 66.6 108.59L80.1 108.59L87.14 57.01Z" />
</svg>