<svg xmlns="http://www.w3.org/2000/svg" viewBox="0 0 80 80" width="80" height="80">
	<defs>
		<linearGradient id="grd1" gradientUnits="userSpaceOnUse"  x1="26.581" y1="11.226" x2="46.776" y2="54.434">
			<stop offset="0" stop-color="#00c3ff"  />
			<stop offset="1" stop-color="#00b0ed"  />
		</linearGradient>
		<linearGradient id="grd2" gradientUnits="userSpaceOnUse"  x1="56.919" y1="49.041" x2="-59.31" y2="-13.308">
			<stop offset="0" stop-color="#00b0ed" stop-opacity="0" />
			<stop offset="1" stop-color="#00a2ce"  />
		</linearGradient>
		<linearGradient id="grd3" gradientUnits="userSpaceOnUse"  x1="40" y1="68.208" x2="40" y2="78.67">
			<stop offset="0" stop-color="#00b0ed" stop-opacity="0" />
			<stop offset="1" stop-color="#00a2ce"  />
		</linearGradient>
		<linearGradient id="grd4" gradientUnits="userSpaceOnUse"  x1="76.434" y1="75.177" x2="37.428" y2="36.171">
			<stop offset="0" stop-color="#00b0ed" stop-opacity="0" />
			<stop offset="1" stop-color="#00a2ce"  />
		</linearGradient>
	</defs>
	<style>
		tspan { white-space:pre }
		.shp0 { fill: url(#grd1) } 
		.shp1 { fill: url(#grd2) } 
		.shp2 { fill: url(#grd3) } 
		.shp3 { fill: url(#grd4) } 
		.shp4 { fill: #ffffff } 
	</style>
	<path id="Layer" class="shp0" d="M65.69 78.48C48.59 80.3 31.41 80.3 14.31 78.48C7.48 77.75 2.1 72.37 1.37 65.57C-0.46 48.48 -0.46 31.36 1.37 14.28C2.1 7.47 7.48 2.1 14.31 1.36C31.41 -0.45 48.59 -0.45 65.69 1.36C72.52 2.1 77.9 7.47 78.63 14.28C80.46 31.36 80.46 48.48 78.63 65.57C77.9 72.37 72.52 77.75 65.69 78.48Z" />
	<path id="Layer" class="shp1" d="M74.28 17.17C73.63 11.13 68.86 6.35 62.79 5.71C47.62 4.09 32.38 4.09 17.21 5.71C11.14 6.35 6.37 11.13 5.72 17.17C4.1 32.33 4.1 47.53 5.72 62.67C6.37 68.72 11.14 73.49 17.21 74.13C32.38 75.75 47.62 75.75 62.79 74.13C68.86 73.49 73.63 68.72 74.28 62.67C75.9 47.53 75.9 32.33 74.28 17.17L74.28 17.17Z" />
	<path id="Layer" class="shp2" d="M1.19 63.91C1.25 64.46 1.31 65.01 1.37 65.57C2.1 72.37 7.48 77.75 14.31 78.48C31.41 80.3 48.59 80.3 65.69 78.48C72.52 77.75 77.9 72.37 78.63 65.57C78.69 65.01 78.75 64.46 78.81 63.91L1.19 63.91Z" />
	<path id="Layer" class="shp3" d="M79.98 37.12L63.38 20.54C61.52 21.6 59.88 22.2 58.64 22.52C57.95 22.7 57.37 22.81 56.97 22.86C55.1 20.95 52.48 19.75 49.59 19.75C43.9 19.75 39.28 24.36 39.28 30.05C39.28 30.25 39.28 30.46 39.3 30.66C39.32 31.15 39.39 31.64 39.48 32.11C37.1 32.07 29.37 31.44 22.01 25.14L22.01 25.14L22.01 25.14L18.54 21.67C18.54 21.67 14.46 28.77 20.45 34.15C20.71 34.45 21 34.74 21.32 35.02C21.34 35.05 21.37 35.08 21.4 35.11C20.61 35.05 18.24 34.82 16.88 33.85C16.88 33.85 16.6 38.2 20.23 41.39L23.14 44.34C22.25 44.41 21.27 44.39 20.59 44.09C20.59 44.09 21.19 46.66 23.54 48.72L27.64 52.83C25.18 54.26 20.87 56.06 15.21 55.59L40.07 79.84C48.62 79.84 57.16 79.39 65.69 78.48C72.52 77.75 77.9 72.37 78.63 65.57C79.64 56.09 80.09 46.6 79.98 37.12L79.98 37.12Z" />
	<path id="Layer" class="shp4" d="M64.79 24.54C63.02 25.46 60.36 25.89 59.47 26.02C59.47 25.97 59.46 25.93 59.45 25.89C62.46 24.03 63.38 20.54 63.38 20.54C61.52 21.6 59.88 22.2 58.64 22.52C57.95 22.7 57.37 22.81 56.97 22.86C55.1 20.95 52.48 19.75 49.59 19.75C43.9 19.75 39.28 24.36 39.28 30.05C39.28 30.25 39.28 30.46 39.3 30.66C39.32 31.15 39.39 31.64 39.48 32.11C36.73 32.07 26.78 31.22 18.54 21.67C18.54 21.67 13.94 29.66 21.66 35.12C21.66 35.12 18.54 35.02 16.88 33.85C16.88 33.85 16.38 41.55 25.27 43.99C25.27 43.99 22.15 44.78 20.59 44.09C20.59 44.09 22.15 50.73 29.96 51.21C29.96 51.21 24.36 56.33 15.21 55.59C19.71 58.43 25.05 60.09 30.77 60.09C46.86 60.09 59.9 47.06 59.9 31.01C59.9 30.81 59.9 30.6 59.9 30.41C59.9 30.29 59.9 30.17 59.9 30.05C59.9 29.97 59.9 29.88 59.9 29.8C62.87 27.82 64.79 24.54 64.79 24.54L64.79 24.54Z" />
</svg>