<svg xmlns="http://www.w3.org/2000/svg" viewBox="0 0 190 148" width="190" height="148">
	<style>
		tspan { white-space:pre }
		.shp0 { fill: #ffffff;stroke: #d9d9d9;stroke-width: 1.618 } 
		.shp1 { fill: #172b85 } 
	</style>
	<g id="Layer">
		<path id="Layer" class="shp0" d="M17.07 0.86L173.64 0.86C182.17 0.86 189.06 8.68 189.06 18.35L189.06 128.7C189.06 138.38 182.17 146.2 173.64 146.2L17.07 146.2C8.55 146.2 1.66 138.38 1.66 128.7L1.66 18.35C1.66 8.68 8.55 0.86 17.07 0.86Z" />
	</g>
	<path id="Layer" fill-rule="evenodd" class="shp1" d="M58.25 99.62L46.81 99.62L38.22 62.46C37.82 60.75 36.95 59.24 35.67 58.52C32.51 56.74 29 55.31 25.18 54.59L25.18 53.15L43.63 53.15C46.17 53.15 48.07 55.31 48.4 57.8L52.85 84.61L64.29 53.15L75.41 53.15L58.25 99.62ZM81.78 99.62L70.97 99.62L79.87 53.15L90.68 53.15L81.78 99.62ZM119.6 84.25C119.6 93.91 112.29 100.33 100.53 99.99C96.72 99.99 92.58 99.27 88.76 97.48L90.68 87.47C94.17 89.26 97.99 90.32 101.8 90.32C104.98 90.32 108.16 88.91 108.16 85.69C108.48 83.55 106.88 82.11 102.76 79.96C98.94 77.82 93.53 74.25 93.53 67.45C93.53 58.52 101.17 52.09 111.65 52.09C114.84 52.09 118.34 52.8 121.51 54.23L119.6 64.23C116.42 62.46 112.62 61.74 109.12 62.09C106.88 62.09 104.98 63.53 104.66 66.03C104.66 71.39 119.6 72.1 119.6 84.25ZM147.58 99.62L146.3 92.84L132.64 92.84L130.41 99.62L119.29 99.62L135.18 56.74C135.81 54.59 137.72 53.15 139.63 53.15L148.85 53.15L157.44 99.62L147.58 99.62ZM135.5 83.18L144.4 83.18L141.22 65.67L135.5 83.18Z" />
</svg>